<svg enable-background="new 0 0 32 32" height="512" viewBox="0 0 32 32" width="512" xmlns="http://www.w3.org/2000/svg"><g id="BG"><path d="m26 32h-20c-3.314 0-6-2.686-6-6v-20c0-3.314 2.686-6 6-6h20c3.314 0 6 2.686 6 6v20c0 3.314-2.686 6-6 6z" fill="#fff9dd"/></g><g id="Layer_1"><path d="m22.833 19.5h-.167v-1c0-.919-.748-1.667-1.667-1.667s-1.667.748-1.667 1.667v1h-.167c-.642 0-1.165.523-1.165 1.167v2.333c0 .643.523 1.167 1.167 1.167h3.667c.643 0 1.166-.524 1.166-1.167v-2.333c0-.644-.523-1.167-1.167-1.167zm-2.5-1c0-.368.299-.667.667-.667s.667.299.667.667v1h-1.333v-1z" fill="#ffe777"/><g fill="#ffd200"><path d="m17 20.667c0-.9.551-1.673 1.333-2v-.167c0-.405.098-.786.26-1.13-.504-.338-1.109-.537-1.76-.537h-5.667c-1.745 0-3.166 1.421-3.166 3.167v2.333c0 .276.224.5.5.5h8.5z"/><circle cx="14" cy="12.167" r="3.333"/></g></g></svg>