<svg enable-background="new 0 0 32 32" height="512" viewBox="0 0 32 32" width="512" xmlns="http://www.w3.org/2000/svg"><g id="BG"><path d="m26 32h-20c-3.314 0-6-2.686-6-6v-20c0-3.314 2.686-6 6-6h20c3.314 0 6 2.686 6 6v20c0 3.314-2.686 6-6 6z" fill="#ffe6e2"/></g><g id="Layer_1"><path d="m22.167 8h-7c-1.011 0-1.833.822-1.833 1.833v1.622c.215-.076.438-.122.667-.122.534 0 1.036.208 1.414.586l2.667 2.667c.378.378.586.88.586 1.414s-.208 1.036-.586 1.414l-2.667 2.667c-.378.378-.88.586-1.414.586-.229 0-.452-.046-.667-.122v1.622c0 1.011.822 1.833 1.833 1.833h7c1.011 0 1.833-.822 1.833-1.833v-12.334c0-1.011-.822-1.833-1.833-1.833z" fill="#fc573b"/><path d="m13.745 19.283c-.249-.103-.411-.346-.411-.616v-2h-4.667c-.369 0-.667-.299-.667-.667s.299-.667.667-.667h4.667v-2c0-.27.162-.513.411-.616s.536-.046.727.145l2.667 2.667c.26.26.26.682 0 .943l-2.667 2.667c-.191.19-.478.247-.727.144z" fill="#fd907e"/></g></svg>